<svg xmlns="http://www.w3.org/2000/svg" width="430" height="430" style="width:100%;height:100%;transform:translate3d(0,0,0);content-visibility:visible" viewBox="0 0 430 430"><defs><clipPath id="c"><path d="M0 0h430v430H0z"/></clipPath><clipPath id="f"><path d="M0 0h430v430H0z"/></clipPath><clipPath id="d"><path d="M0 0h430v430H0z"/></clipPath><path id="a" style="display:none"/><path id="b" fill="red" d="m-150-140 .5 190H151l-1-189.75-300-.25z" style="display:block" transform="translate(215 215)"/><mask id="g" mask-type="alpha"><use xmlns:ns1="http://www.w3.org/1999/xlink" ns1:href="#a"/></mask><mask id="e" mask-type="alpha"><use xmlns:ns2="http://www.w3.org/1999/xlink" ns2:href="#b"/></mask></defs><g clip-path="url(#c)"><g clip-path="url(#d)" style="display:block"><g style="display:block"><path fill="#4BB3FD" d="M370 70H60v200h310V70z" class="tertiary"/><path fill="#4BB3FD" d="M10-95h-20V95h20V-95z" class="tertiary" opacity=".5" style="mix-blend-mode:multiply" transform="translate(75 170)"/><path fill="#3A3347" d="M365 75v190H65V75h300zM45 265h340V75c0-11.046-8.954-20-20-20H65c-11.046 0-20 8.954-20 20v190z" class="secondary"/><path fill="#3A3347" d="M-20-85v190H0V-85c0-11.046 8.954-20 20-20H0c-11.046 0-20 8.954-20 20z" class="secondary" opacity=".5" style="mix-blend-mode:multiply" transform="translate(65 160)"/><path fill="#EBE6EF" d="M45 295v-30h340v30c0 11.046-8.954 20-20 20H65c-11.046 0-20-8.954-20-20z" class="quaternary"/><path fill="#EBE6EF" d="M-20-25V5c0 11.046 8.954 20 20 20h20C8.954 25 0 16.046 0 5v-30h-20z" class="quaternary" opacity=".5" style="mix-blend-mode:multiply" transform="translate(65 290)"/></g><g fill="#EBE6EF" style="display:block"><path d="m250 375-5-60h-60l-5 60h70z" class="quaternary"/><path d="m-18.125 30 3.75-45h47.5l-1.25-15h-60l-5 60h15z" class="quaternary" opacity=".5" style="mix-blend-mode:multiply" transform="translate(213.125 345)"/></g><g mask="url(#e)" style="display:none"><path fill="none" class="quaternary"/><path class="quaternary"/><path fill="none" class="quaternary"/><path class="quaternary"/><path fill="none" class="quaternary"/><path class="quaternary"/></g><g fill="none" stroke="#121331" stroke-linecap="round" stroke-linejoin="round" style="display:block"><path stroke-width="7" d="M45 265.031h340M145 375h140m-100-60-5 60m70 0-5-60M65 55c-11.046 0-20 8.954-20 20v220c0 11.046 8.954 20 20 20h300c11.046 0 20-8.954 20-20V75c0-11.046-8.954-20-20-20H65z" class="primary"/><path stroke-width="20" d="m215.029 290.179-.154-.094" class="primary"/></g></g><g clip-path="url(#f)" style="display:none"><g style="display:none"><path class="tertiary"/><path class="tertiary" style="mix-blend-mode:multiply"/><path class="secondary"/><path class="secondary" style="mix-blend-mode:multiply"/><path class="quaternary"/><path class="quaternary" style="mix-blend-mode:multiply"/></g><g style="display:none"><path class="quaternary"/><path class="quaternary" style="mix-blend-mode:multiply"/></g><g mask="url(#g)" style="display:none"><path fill="none"/><path/></g><g fill="none" style="display:none"><path class="primary"/><path class="primary"/><path class="primary"/></g><path fill="none" class="primary" style="display:none"/></g></g></svg>